<?xml version="1.0" standalone="no"?>
<!DOCTYPE svg PUBLIC "-//W3C//DTD SVG 20010904//EN"
 "http://www.w3.org/TR/2001/REC-SVG-20010904/DTD/svg10.dtd">
<svg version="1.0" xmlns="http://www.w3.org/2000/svg"
 width="512.000000pt" height="512.000000pt" viewBox="0 0 512.000000 512.000000"
 preserveAspectRatio="xMidYMid meet">

<g transform="translate(0.000000,512.000000) scale(0.100000,-0.100000)"
fill="#000000" stroke="none">
<path d="M2320 4209 c-263 -34 -508 -126 -730 -274 -698 -467 -940 -1388 -563
-2140 374 -746 1240 -1103 2033 -838 269 90 537 268 722 479 504 577 558 1408
133 2044 -264 395 -693 663 -1162 725 -116 16 -328 18 -433 4z m-23 -1408
c131 -67 152 -294 37 -415 -39 -41 -89 -59 -164 -59 -142 0 -224 90 -225 248
0 117 56 209 150 244 46 17 153 7 202 -18z m452 18 c73 -16 113 -54 135 -126
7 -21 4 -23 -28 -23 -28 0 -38 5 -48 27 -31 64 -130 87 -198 47 -89 -52 -106
-232 -31 -316 25 -28 35 -32 92 -35 94 -5 142 29 156 110 l6 37 -77 0 -77 0 3
28 3 27 105 0 105 0 3 -127 3 -128 -26 0 c-18 0 -26 7 -31 24 l-6 24 -48 -30
c-40 -25 -58 -30 -113 -30 -86 0 -144 31 -184 100 -25 42 -28 56 -28 142 0 86
3 100 28 142 57 97 143 133 256 107z m578 -18 c131 -67 152 -294 37 -415 -39
-41 -89 -59 -164 -59 -142 0 -224 90 -225 248 0 117 56 209 150 244 46 17 153
7 202 -18z m-1657 -191 l0 -210 120 0 120 0 0 -30 0 -30 -155 0 -155 0 0 240
0 240 35 0 35 0 0 -210z"/>
<path d="M2143 2760 c-82 -19 -123 -80 -123 -187 0 -81 20 -128 70 -161 30
-20 44 -23 99 -20 58 4 66 7 96 40 79 86 65 267 -24 312 -37 18 -81 24 -118
16z"/>
<path d="M3173 2760 c-82 -19 -123 -80 -123 -187 0 -81 20 -128 70 -161 30
-20 44 -23 99 -20 58 4 66 7 96 40 79 86 65 267 -24 312 -37 18 -81 24 -118
16z"/>
</g>
</svg>
